<?xml version="1.0" encoding="UTF-8"?>
<svg id="Layer_2" data-name="Layer 2" xmlns="http://www.w3.org/2000/svg" viewBox="0 0 1925.96 276.16">
  <defs>
    <style>
      .cls-1 {
        fill: #093d2b;
      }

      .cls-2 {
        fill: #529e47;
      }
    </style>
  </defs>
  <g id="Layer_1-2" data-name="Layer 1">
    <g>
      <g>
        <path class="cls-1" d="m173.46,229.56c.38.37.7.8,1.18,1.36-11.05,5.74-22.59,9.45-34.75,11.03-34.8,4.51-66.75-2.81-94.17-25.11C13.03,190.25-3.08,155.27.49,113.24,4.86,61.8,32.15,25.83,80.63,7.79,115.64-5.23,149.7-1.53,181.89,15.92c-13,9-24.3,20.28-33.33,33.26-45.71-16.32-95.42,12.61-103.14,61.2-7.21,45.43,28.37,87.71,74.61,88.68,7.6.16,15.08-.56,22.41-2.63,1.36-.38,2.52-.73,3.6.89,7.9,11.79,17.24,22.37,27.42,32.24Z"/>
        <path class="cls-2" d="m234.18,179.33c-8.71,16.7-23.03,34.17-38.08,46.69v-3.4c-.01-15.43.02-30.86-.08-46.29-.02-2.26.7-3.8,2.3-5.32,7.89-7.52,15.67-15.17,22.43-23.75,19.19-24.37,5.89-59.3-24.6-63.97-15.44-2.36-28.48,2.98-37.65,15.74-9.48,13.19-10.11,27.43-2.67,41.86,4.42,8.57,11.57,14.99,18.03,21.93,1.84,1.97,3.59,4.11,5.74,5.68,4.09,3.01,5,6.84,4.9,11.73-.31,14.02-.11,28.06-.11,42.08v3.72c-2.53-2.1-4.79-4.19-6.94-6.28-1.7-1.65-3.31-3.29-4.92-4.96-15.51-16.05-27.7-34.13-34.65-55.12-3.31-11.18-5.09-23.02-5.09-35.28,0-43.65,22.53-82.04,56.6-104.17,21.91,13.46,38.92,31.45,49.33,55.26,15.43,35.31,13.15,69.95-4.52,103.83Z"/>
        <path class="cls-1" d="m195.69,19.07C212.41,8.96,229.94,2.52,249.14.84c56.97-4.97,110.8,31.82,126.62,86.62q1.3,4.49-3.51,4.49c-13.16,0-26.33-.04-39.49.04-1.96.01-3.02-.5-3.91-2.39-17.54-36.89-57.7-53.57-96.15-40-1.35.48-2.4.96-3.61-.6-8.95-11.54-19.83-20.97-32.04-28.92-.35-.23-.68-.51-1.35-1.02Z"/>
        <path class="cls-1" d="m205.71,230.77c7.91-7.63,15.25-15.22,21.68-23.63,2.23-2.91,4.54-5.78,6.44-8.9,1.33-2.18,2.7-2.37,5-1.8,20.56,5.16,40.23,3.03,58.69-7.71,13.91-8.1,24.19-19.64,31.2-34.07.97-1.99,1.99-2.9,4.31-2.87,13.69.13,27.39.14,41.08.07,2.36-.01,2.9.43,2.21,2.86-13.51,47.34-53.85,81.86-101.06,87.55-23.59,2.84-46.19-.67-67.79-10.57-.49-.22-.95-.5-1.77-.93Z"/>
        <path class="cls-2" d="m190.12,145.14c-13.3-.13-23.31-10.23-23.24-23.46.08-13.24,10.44-23.35,23.83-23.25,12.75.09,23.03,10.64,22.94,23.53-.09,13.21-10.35,23.32-23.54,23.19Z"/>
      </g>
      <g>
        <path class="cls-1" d="m621.78,56.09v-16.33c0-6.11,4.95-11.07,11.07-11.07h16.33c6.11,0,11.07,4.95,11.07,11.07v16.33c0,6.11-4.95,11.07-11.07,11.07h-16.33c-6.11,0-11.07-4.95-11.07-11.07Zm0,152.58v-117.88c0-6.11,4.95-11.07,11.07-11.07h16.33c6.11,0,11.07,4.95,11.07,11.07v117.88c0,6.11-4.95,11.07-11.07,11.07h-16.33c-6.11,0-11.07-4.95-11.07-11.07Z"/>
        <path class="cls-1" d="m799.11,276.16c-4.1,0-8.08-.34-11.92-1.03l-.12-.02c-5.8-1.04-10.01-6.08-10.01-11.97v-13.86c0-4.5,4.02-7.93,8.46-7.23h0c3.25.51,6.24.77,8.98.77,7.52,0,12.91-1.76,16.16-5.26,3.25-3.51,5.9-7.48,7.95-11.92l3.12-7.16c1.39-3.2,6.17-2.16,6.12,1.32h0c-.06,3.49-4.88,4.37-6.16,1.12l-50.48-128.09c-2.48-6.3,2.16-13.11,8.93-13.11h20.49c4.02,0,7.62,2.51,9.01,6.29l36.89,100.46c.76,2.08-.78,4.29-3,4.29h-6.24c-2.22,0-3.76-2.21-3-4.29l36.89-100.46c1.39-3.78,4.98-6.29,9.01-6.29h20.52c6.76,0,11.4,6.8,8.93,13.1l-54.87,140c-3.76,9.57-8.38,17.61-13.85,24.11-5.47,6.5-11.67,11.32-18.59,14.49-6.92,3.16-14.66,4.74-23.21,4.74Z"/>
        <path class="cls-2" d="m1019.11,222.82c-13.68,0-26.37-2.48-38.08-7.44-11.71-4.96-21.93-11.88-30.64-20.77-8.72-8.89-15.51-19.32-20.39-31.29-4.87-11.96-7.31-25.04-7.31-39.24s2.39-27.31,7.18-39.36c4.78-12.05,11.54-22.48,20.26-31.29,8.72-8.8,18.93-15.64,30.64-20.52,11.71-4.87,24.49-7.31,38.34-7.31s26.29,2.31,37.31,6.92c11.03,4.62,20.39,10.77,28.08,18.46,5.13,5.13,9.27,10.64,12.43,16.53,2.56,4.78.65,10.72-4.23,13.07l-18.23,8.78c-4.48,2.16-9.87.49-12.34-3.83-3.29-5.74-7.76-10.72-13.39-14.93-8.12-6.07-17.99-9.1-29.62-9.1s-21.2,2.65-29.75,7.95c-8.55,5.3-15.17,12.61-19.87,21.93-4.7,9.32-7.05,20.22-7.05,32.7s2.35,23.42,7.05,32.82c4.7,9.4,11.32,16.76,19.87,22.05,8.55,5.3,18.46,7.95,29.75,7.95s21.5-3.03,29.62-9.1c5.64-4.21,10.1-9.19,13.39-14.93,2.47-4.32,7.86-5.99,12.34-3.83l18.23,8.78c4.88,2.35,6.79,8.29,4.23,13.07-3.15,5.89-7.3,11.4-12.43,16.53-7.69,7.69-17.05,13.85-28.08,18.46-11.03,4.62-23.46,6.92-37.31,6.92Z"/>
        <path class="cls-1" d="m532.36,222.82c-13.68,0-26.37-2.48-38.08-7.44-11.71-4.96-21.93-11.88-30.64-20.77-8.72-8.89-15.51-19.32-20.39-31.29-4.87-11.96-7.31-25.04-7.31-39.24s2.39-27.31,7.18-39.36c4.78-12.05,11.54-22.48,20.26-31.29,8.72-8.8,18.93-15.64,30.64-20.52,11.71-4.87,24.49-7.31,38.34-7.31s26.29,2.31,37.31,6.92c11.03,4.62,20.39,10.77,28.08,18.46,5.13,5.13,9.27,10.64,12.43,16.53,2.56,4.78.65,10.72-4.23,13.07l-18.23,8.78c-4.48,2.16-9.87.49-12.34-3.83-3.29-5.74-7.76-10.72-13.39-14.93-8.12-6.07-17.99-9.1-29.62-9.1s-21.2,2.65-29.75,7.95c-8.55,5.3-15.17,12.61-19.87,21.93-4.7,9.32-7.05,20.22-7.05,32.7s2.35,23.42,7.05,32.82c4.7,9.4,11.32,16.76,19.87,22.05,8.55,5.3,18.46,7.95,29.75,7.95s21.5-3.03,29.62-9.1c5.64-4.21,10.1-9.19,13.39-14.93,2.47-4.32,7.86-5.99,12.34-3.83l18.23,8.78c4.88,2.35,6.79,8.29,4.23,13.07-3.15,5.89-7.3,11.4-12.43,16.53-7.69,7.69-17.05,13.85-28.08,18.46-11.03,4.62-23.46,6.92-37.31,6.92Z"/>
        <path class="cls-2" d="m1179.49,222.82c-13.85,0-26.46-3.16-37.82-9.49-11.37-6.32-20.43-15-27.18-26.03-6.76-11.03-10.13-23.55-10.13-37.57s3.37-26.75,10.13-37.7c6.75-10.94,15.81-19.57,27.18-25.9,11.37-6.32,23.98-9.49,37.82-9.49s26.41,3.17,37.7,9.49c11.28,6.33,20.3,14.96,27.05,25.9,6.75,10.94,10.13,23.51,10.13,37.7s-3.38,26.54-10.13,37.57c-6.76,11.03-15.77,19.71-27.05,26.03-11.28,6.33-23.85,9.49-37.7,9.49Zm0-34.62c7.01,0,13.12-1.62,18.34-4.87,5.21-3.25,9.32-7.78,12.31-13.59,2.99-5.81,4.49-12.48,4.49-20s-1.5-14.14-4.49-19.87c-2.99-5.73-7.1-10.26-12.31-13.59-5.22-3.33-11.33-5-18.34-5s-13.17,1.67-18.46,5c-5.3,3.33-9.45,7.87-12.44,13.59-2.99,5.73-4.49,12.35-4.49,19.87s1.5,14.19,4.49,20c2.99,5.81,7.14,10.35,12.44,13.59,5.3,3.25,11.45,4.87,18.46,4.87Z"/>
        <path class="cls-2" d="m1262.75,201.79v-104.12c0-9.91,8.04-17.95,17.95-17.95h0c9.91,0,17.95,8.04,17.95,17.95v3.62c0,1.13-1.58,1.38-1.94.31h0c-.07-.22-.07-.47.02-.69,3.26-8.2,8.47-14.28,15.64-18.25,7.26-4.01,15.77-6.03,25.52-6.03,10.6,0,19.87,2.22,27.82,6.67,7.95,4.45,14.14,10.64,18.59,18.59,4.44,7.95,6.67,17.23,6.67,27.82v79.55c0,5.78-4.68,10.46-10.46,10.46h-17.54c-5.78,0-10.46-4.68-10.46-10.46v-71.34c0-5.47-1.07-10.17-3.21-14.1-2.14-3.93-5.13-7.01-8.98-9.23-3.85-2.22-8.33-3.33-13.46-3.33s-9.4,1.11-13.33,3.33c-3.94,2.22-6.97,5.3-9.1,9.23-2.14,3.94-3.21,8.63-3.21,14.1v63.85c0,9.91-8.04,17.95-17.95,17.95h-2.56c-9.91,0-17.95-8.04-17.95-17.95Z"/>
        <path class="cls-2" d="m1401.96,201.79v-104.12c0-9.91,8.04-17.95,17.95-17.95h0c9.91,0,17.95,8.04,17.95,17.95v3.62c0,1.13-1.58,1.38-1.94.31h0c-.07-.22-.07-.47.02-.69,3.26-8.2,8.47-14.28,15.64-18.25,7.26-4.01,15.77-6.03,25.52-6.03,10.6,0,19.87,2.22,27.82,6.67,7.95,4.45,14.14,10.64,18.59,18.59,4.44,7.95,6.67,17.23,6.67,27.82v79.55c0,5.78-4.68,10.46-10.46,10.46h-17.54c-5.78,0-10.46-4.68-10.46-10.46v-71.34c0-5.47-1.07-10.17-3.21-14.1-2.14-3.93-5.13-7.01-8.98-9.23-3.85-2.22-8.33-3.33-13.46-3.33s-9.4,1.11-13.33,3.33c-3.94,2.22-6.97,5.3-9.1,9.23-2.14,3.94-3.21,8.63-3.21,14.1v63.85c0,9.91-8.04,17.95-17.95,17.95h-2.56c-9.91,0-17.95-8.04-17.95-17.95Z"/>
        <path class="cls-2" d="m1611.73,222.82c-14.87,0-27.78-3.29-38.72-9.87-10.94-6.58-19.41-15.43-25.39-26.54-5.99-11.11-8.98-23.42-8.98-36.93s3.12-26.5,9.36-37.44c6.24-10.94,14.66-19.57,25.26-25.9,10.6-6.32,22.57-9.49,35.9-9.49,11.11,0,20.94,1.76,29.49,5.26,8.55,3.51,15.77,8.42,21.67,14.75,5.9,6.33,10.39,13.64,13.46,21.93,3.08,8.29,4.62,17.31,4.62,27.05,0,2.74-.13,5.43-.38,8.08,0,.03,0,.05,0,.08-.38,3.83-3.65,6.72-7.5,6.72h-94.66c-2.28,0-4.13-1.85-4.13-4.13v-19.95c0-2.28,1.85-4.13,4.13-4.13h66.34c3.99,0,5.66,5.1,2.44,7.46l-.25.18c-2.78,2.04-6.64-.03-6.56-3.49.08-3.74-.41-7.21-1.47-10.44-1.88-5.73-5.17-10.26-9.87-13.59-4.7-3.33-10.47-5-17.31-5s-12.4,1.63-17.18,4.87c-4.79,3.25-8.38,8.04-10.77,14.36-2.37,6.27-3.32,13.87-2.84,22.82,0,.17,0,.34,0,.51-.64,7.76.31,14.6,2.84,20.51,2.56,5.99,6.49,10.64,11.8,13.98,5.3,3.33,11.71,5,19.23,5,6.84,0,12.69-1.37,17.57-4.1,2.71-1.52,5.09-3.36,7.14-5.52,3.06-3.22,7.88-4.05,11.9-2.14l13.09,6.22c5.92,2.81,7.87,10.41,3.86,15.6-1.96,2.53-4.21,4.91-6.76,7.13-5.9,5.13-12.87,9.1-20.9,11.92-8.04,2.82-16.84,4.23-26.41,4.23Z"/>
        <path class="cls-2" d="m1759.88,222.82c-14.02,0-26.63-3.21-37.83-9.62-11.2-6.41-20.09-15.17-26.67-26.29-6.58-11.11-9.87-23.59-9.87-37.44s3.25-26.29,9.75-37.31c6.49-11.03,15.39-19.7,26.67-26.03,11.28-6.32,23.93-9.49,37.95-9.49,10.43,0,20.09,1.8,28.98,5.39,8.89,3.59,16.5,8.59,22.82,15,2.96,3,5.52,6.25,7.7,9.75,3.99,6.43,1.32,14.91-5.64,17.91l-11.19,4.82c-5.39,2.32-11.68.54-15.04-4.27-2.11-3.02-4.69-5.63-7.75-7.82-5.73-4.1-12.35-6.15-19.87-6.15-6.67,0-12.61,1.63-17.82,4.87-5.22,3.25-9.32,7.78-12.31,13.59-2.99,5.81-4.49,12.48-4.49,20s1.5,14.19,4.49,20c2.99,5.81,7.09,10.35,12.31,13.59,5.21,3.25,11.15,4.87,17.82,4.87,7.69,0,14.36-2.05,20-6.15,2.97-2.16,5.5-4.73,7.57-7.7,3.39-4.86,9.72-6.67,15.15-4.29l11.14,4.88c6.92,3.03,9.61,11.55,5.53,17.92-2.07,3.23-4.52,6.3-7.34,9.19-6.33,6.5-13.94,11.58-22.82,15.26-8.89,3.67-18.64,5.51-29.23,5.51Z"/>
        <path class="cls-2" d="m1908,221.28c-16.93,0-30.05-4.57-39.36-13.72-9.32-9.14-13.98-21.93-13.98-38.34v-56.16h-12.27c-6.25,0-11.32-5.07-11.32-11.32v-20.73c0-.71.57-1.28,1.28-1.28h0c7.18,0,12.69-1.8,16.54-5.39,3.85-3.59,5.77-8.98,5.77-16.16h0c0-5.66,4.59-10.26,10.26-10.26h17.95c5.66,0,10.26,4.59,10.26,10.26v10.68c0,6,4.86,10.86,10.86,10.86h11.2c5.95,0,10.77,4.82,10.77,10.77v11.8c0,5.95-4.82,10.77-10.77,10.77h-22.06v53.6c0,4.79.85,8.76,2.56,11.93,1.71,3.17,4.36,5.51,7.95,7.05,3.59,1.54,8.03,2.31,13.33,2.31,1.19,0,2.56-.08,4.1-.26h.05c2.58-.29,4.83,1.73,4.83,4.32v19.16c0,4.93-3.72,9.07-8.62,9.59h-.1c-3.25.35-6.33.52-9.23.52Z"/>
        <path class="cls-1" d="m744.44,221.28c-16.93,0-30.05-4.57-39.36-13.72-9.32-9.14-13.98-21.93-13.98-38.34v-56.16h-12.27c-6.25,0-11.32-5.07-11.32-11.32v-20.73c0-.71.57-1.28,1.28-1.28h0c7.18,0,12.69-1.8,16.54-5.39,3.85-3.59,5.77-8.98,5.77-16.16h0c0-5.66,4.59-10.26,10.26-10.26h17.95c5.66,0,10.26,4.59,10.26,10.26v10.68c0,6,4.86,10.86,10.86,10.86h11.2c5.95,0,10.77,4.82,10.77,10.77v11.8c0,5.95-4.82,10.77-10.77,10.77h-22.06v53.6c0,4.79.85,8.76,2.56,11.93,1.71,3.17,4.36,5.51,7.95,7.05,3.59,1.54,8.03,2.31,13.33,2.31,1.19,0,2.56-.08,4.1-.26h.05c2.58-.29,4.83,1.73,4.83,4.32v19.16c0,4.93-3.72,9.07-8.62,9.59h-.1c-3.25.35-6.33.52-9.23.52Z"/>
      </g>
    </g>
  </g>
</svg>