<svg width="25" height="24" viewBox="0 0 25 24" fill="none" xmlns="http://www.w3.org/2000/svg">
<path fill-rule="evenodd" clip-rule="evenodd" d="M2.12481 12.8441C2.23627 12.3831 2.55958 11.9068 3.03553 11.8514L3.02773 12.3813L3.05583 15.3608C2.48369 15.3262 2.12533 14.7629 2.06934 14.1685C1.96857 13.7894 1.86535 13.3418 2.04182 12.9678L2.12481 12.8441ZM22.032 14.2076C21.9198 14.8013 21.6467 15.2662 21.0536 15.3657L21.0526 13.0853L21.047 11.8612C21.4966 11.9502 21.8001 12.3123 21.9538 12.6954C22.1391 13.1569 22.132 13.7004 22.032 14.2076ZM5.58587 8.66125C6.16677 8.32628 10.9627 8.14993 11.9708 8.14677C14.1781 8.13982 16.2684 8.30244 18.3894 8.60352C20.0905 8.90866 20.1489 11.0472 20.1866 12.8296C20.2072 13.8068 20.208 14.8345 20.1395 15.8041C20.0726 16.7528 19.9306 17.5367 19.451 18.1442C18.6855 19.1142 15.936 19.0638 14.393 19.1499C13.4333 19.2034 9.24137 19.3762 8.63644 19.0309C7.88679 18.9797 6.456 18.9496 5.82555 18.7331C5.2 18.6866 4.98525 18.544 4.68024 18.1977C4.44204 17.9276 4.25358 17.452 4.18007 16.9913C3.91771 15.3474 3.77106 12.17 4.09824 10.5853C4.1936 10.1231 4.33579 9.68942 4.56536 9.34723C4.74995 9.07205 5.10747 8.68554 5.58587 8.66125Z" fill="#475467"/>
<path fill-rule="evenodd" clip-rule="evenodd" d="M3.23262 16.7252C3.27972 16.9614 3.33687 17.1602 3.37211 17.4216C3.4051 17.6659 3.43287 17.896 3.51328 18.1199C3.66598 18.5453 3.97067 18.8436 4.24321 19.0679C4.87314 19.5858 5.84075 19.635 6.80585 19.7541C8.17525 20.1314 15.4655 19.9622 15.4655 19.9622C17.7528 19.7541 19.8252 19.6403 20.6257 18.1013C20.7629 17.8375 20.8775 17.5005 20.9371 17.1649C21.068 16.4271 20.8626 16.4891 21.345 16.3034C22.064 16.0267 22.3303 15.9648 22.7455 15.1607C23.2077 14.2657 23.2294 13.0062 22.7544 12.0577C22.4522 11.4544 22.0693 11.1101 21.408 10.8867C20.9477 10.7313 20.8803 10.7538 20.7941 10.2277C20.7026 9.66939 20.6248 9.26837 20.3194 8.80976C20.2769 8.74597 20.2316 8.67903 20.1822 8.62182C20.1332 8.56518 20.0741 8.51358 20.0489 8.44425C19.9421 8.39277 19.8374 8.27879 19.7126 8.19883C18.5764 7.47122 15.886 7.32452 14.5337 7.26151C14.4764 7.25886 12.4137 7.22607 12.3805 7.19192C12.364 7.1637 12.195 6.25807 12.15 6.09964C11.8912 5.18834 11.371 4.09483 10.2391 4.00682C9.38595 3.93073 8.69507 4.50841 8.29064 4.89769C8.01192 4.9004 7.90451 4.76407 7.54435 4.88442C6.8514 5.11592 6.60696 5.9347 7.14076 6.48242C7.43572 6.78511 7.927 6.89219 8.34573 6.60548C8.72252 6.34756 8.81787 5.96053 8.70061 5.35966C9.01947 4.90356 10.1069 4.4405 10.7942 5.02108C11.3383 5.48059 11.5607 6.26058 11.5844 7.21924C11.199 7.26666 10.6646 7.25042 10.2618 7.26943C8.93378 7.33212 7.68577 7.43463 6.3665 7.57624C4.50486 7.77611 3.65702 8.35153 3.31644 10.0971C3.20723 10.657 3.26773 10.7313 2.74546 10.909C2.56706 10.9697 2.3699 11.009 2.21398 11.081C2.05529 11.1542 1.9341 11.2655 1.82302 11.3934C1.42561 11.8507 1.06036 12.526 1.00643 13.3691C0.935495 14.4786 1.45545 15.8002 2.35927 16.2154C2.53111 16.2945 2.69882 16.3333 2.8934 16.3843C3.26213 16.4808 3.08546 16.5155 3.23262 16.7252ZM3.03553 11.8514C2.55958 11.9068 2.23627 12.3831 2.12481 12.8441L2.04182 12.9678C1.86535 13.3418 1.96857 13.7894 2.06934 14.1685C2.12533 14.7629 2.48369 15.3262 3.05583 15.3608L3.02773 12.3813L3.03553 11.8514ZM21.0536 15.3657C21.6467 15.2662 21.9198 14.8013 22.032 14.2076C22.132 13.7004 22.1391 13.1569 21.9538 12.6954C21.8001 12.3123 21.4966 11.9502 21.047 11.8612L21.0526 13.0853L21.0536 15.3657ZM11.9708 8.14677C10.9627 8.14993 6.16677 8.32628 5.58587 8.66125C5.10747 8.68554 4.74995 9.07205 4.56536 9.34723C4.33579 9.68942 4.1936 10.1231 4.09824 10.5853C3.77106 12.17 3.91771 15.3474 4.18007 16.9913C4.25358 17.452 4.44204 17.9276 4.68024 18.1977C4.98525 18.544 5.2 18.6866 5.82555 18.7331C6.456 18.9496 7.88679 18.9797 8.63644 19.0309C9.24137 19.3762 13.4333 19.2034 14.393 19.1499C15.936 19.0638 18.6855 19.1142 19.451 18.1442C19.9306 17.5367 20.0726 16.7528 20.1395 15.8041C20.208 14.8345 20.2072 13.8068 20.1866 12.8296C20.1489 11.0472 20.0905 8.90866 18.3894 8.60352C16.2684 8.30244 14.1781 8.13982 11.9708 8.14677Z" fill="#475467"/>
<path fill-rule="evenodd" clip-rule="evenodd" d="M6.72741 12.4716C6.62097 12.7552 6.4914 12.8078 6.41293 13.3356C6.35848 13.7019 6.39978 14.0922 6.49598 14.4337C6.8419 15.6614 7.86396 16.5072 9.1436 16.6044C10.0224 16.6712 10.3575 16.3627 11.0382 16.1174C12.8769 15.455 13.3965 16.7308 14.9748 16.6025C16.1225 16.5094 17.6091 15.4844 17.543 14.3525C17.5323 13.0972 17.1154 12.2752 16.101 11.6474C14.8999 10.9042 14.1068 11.3182 12.9246 11.7528C11.3285 12.3394 10.9121 11.4744 9.61762 11.2838C8.99947 11.1929 8.35466 11.298 7.89134 11.5638C7.28963 11.9091 6.90936 12.3969 6.72741 12.4716Z" fill="white"/>
<path fill-rule="evenodd" clip-rule="evenodd" d="M5.53852 13.8841C5.64747 16.2479 7.97101 17.8972 10.0852 17.3834C10.7741 17.216 11.4841 16.7519 12.2425 16.8098C13.0192 16.8691 13.4915 17.3583 14.3607 17.4487C15.2028 17.5364 16.0178 17.3664 16.6409 17.0112C17.2181 16.682 17.6844 16.2249 18.0097 15.6467C19.161 13.5999 18.4267 11.0803 16.3038 10.2014C14.0231 9.25708 13.1654 10.6725 11.8212 10.5403C11.0265 10.4622 10.5884 9.98166 9.70328 9.90203C7.42084 9.69669 5.42866 11.5007 5.53852 13.8841ZM17.5439 14.3528C17.6099 15.4847 16.1233 16.5097 14.9757 16.6028C13.3974 16.731 12.8778 15.4553 11.0391 16.1177C10.3583 16.363 10.0232 16.6716 9.14448 16.6048C7.8649 16.5075 6.84278 15.6617 6.49685 14.434C6.40066 14.0926 6.35936 13.7022 6.4138 13.3359C6.49228 12.8081 6.62185 12.7556 6.72828 12.4719C7.0927 11.3226 8.34374 10.6945 9.5096 10.7631C10.9498 10.8477 11.316 11.8867 13.0646 11.2428C14.4682 10.726 15.1943 10.4196 16.4725 11.3043C16.8684 11.5783 17.2178 12.0094 17.4621 12.5341C17.6866 13.0163 17.8545 13.9245 17.5439 14.3528Z" fill="#475467"/>
<path d="M11.9712 8.14648C14.1784 8.13953 16.2691 8.30244 18.3901 8.60352C18.4538 8.74913 18.5516 8.89287 18.6255 9.07031C18.6471 9.12225 18.6689 9.1754 18.689 9.23047L18.6265 9.06934C18.5526 8.89213 18.4548 8.74894 18.3911 8.60352C20.0919 8.90896 20.1503 11.0469 20.188 12.8291C20.2087 13.8064 20.2096 14.8341 20.1411 15.8037C20.0741 16.7522 19.932 17.536 19.4526 18.1436C18.6871 19.1135 15.937 19.0633 14.394 19.1494C13.4346 19.2029 9.25084 19.3742 8.64014 19.0303L8.63721 19.0312C7.88773 18.98 6.45732 18.9498 5.82666 18.7334V18.7324C5.20147 18.6859 4.98705 18.5433 4.68213 18.1973C4.44388 17.9271 4.25468 17.4519 4.18115 16.9912C3.91873 15.3474 3.77292 12.1698 4.1001 10.585C4.19545 10.1229 4.33735 9.68883 4.56689 9.34668C4.75153 9.07151 5.10915 8.68542 5.5874 8.66113C5.63067 8.65605 5.66699 8.65265 5.69971 8.65137C5.66679 8.65263 5.63003 8.65601 5.58643 8.66113C6.16718 8.32621 10.962 8.14976 11.9712 8.14648ZM14.4468 18.6973C13.965 18.7682 13.4798 18.8241 13.0073 18.8672C13.4798 18.8241 13.965 18.7681 14.4468 18.6973ZM16.1636 18.3584C15.9222 18.4215 15.6738 18.4771 15.4214 18.5283C15.6738 18.4772 15.9222 18.4215 16.1636 18.3584ZM18.4644 17.3184C18.3575 17.4209 18.225 17.517 18.0581 17.6162C17.7405 17.8051 17.3784 17.9675 16.9858 18.1074L17.3687 17.96C17.6158 17.8564 17.8473 17.7421 18.0591 17.6162C18.2257 17.5171 18.3576 17.4207 18.4644 17.3184ZM16.3042 10.2012C14.0237 9.25697 13.1658 10.6719 11.8218 10.54C11.0272 10.4619 10.5886 9.98102 9.70361 9.90137C7.42111 9.69609 5.42872 11.5004 5.53857 13.8838C5.64762 16.2476 7.97119 17.8966 10.0854 17.3828C10.7743 17.2155 11.4842 16.7518 12.2427 16.8096C13.0193 16.8688 13.4917 17.3577 14.3608 17.4482C15.203 17.5359 16.0181 17.366 16.6411 17.0107C17.2183 16.6815 17.685 16.2247 18.0103 15.6465C19.1616 13.5998 18.4268 11.0802 16.3042 10.2012ZM18.7329 16.9463C18.6818 17.055 18.6187 17.1512 18.5386 17.2412C18.6436 17.1233 18.7199 16.9949 18.7778 16.8418L18.7329 16.9463ZM19.0913 11.4756C19.1984 13.0125 19.0919 14.7255 18.9692 15.8252H18.9702C19.0193 15.3853 19.0659 14.8473 19.0972 14.2617C19.1519 13.2369 19.1594 12.0662 19.0532 11.0205L19.0913 11.4756ZM18.7466 9.40137C18.8575 9.75037 18.9404 10.1507 19.0005 10.5811L18.9331 10.1611C18.8825 9.88887 18.8206 9.63325 18.7466 9.40039V9.40137Z" fill="#D0D5DD"/>
<path fill-rule="evenodd" clip-rule="evenodd" d="M8.63623 19.0307C9.24116 19.3759 13.4331 19.2031 14.3928 19.1496C15.9358 19.0636 18.6853 19.1139 19.4508 18.144C19.9303 17.5364 20.0723 16.7525 20.1393 15.8038C20.2078 14.8342 20.207 13.8066 20.1864 12.8293C20.1487 11.0469 20.0904 8.90848 18.3892 8.60327C18.4529 8.74888 18.551 8.89218 18.6249 9.06962C19.3196 10.7361 19.1649 14.0661 18.9686 15.8254C18.855 16.8421 18.7559 17.2009 18.0574 17.6163C16.3627 18.6241 13.4019 18.8774 11.3027 18.9848C10.4081 19.0304 9.52769 19.0062 8.63623 19.0307Z" fill="#98A2B3"/>
<path fill-rule="evenodd" clip-rule="evenodd" d="M5.82516 18.7327C5.83244 18.6078 5.86865 18.6611 5.74178 18.5965C5.69462 18.5725 5.66047 18.5626 5.61479 18.5341C5.00644 18.156 4.84769 17.2561 4.77044 16.5924C4.65575 15.6074 4.57489 14.6207 4.57657 13.6127C4.57792 12.8232 4.67927 10.0145 5.09845 9.36532C5.37028 8.9444 5.69333 8.8895 5.9861 8.69305C5.82123 8.6504 5.75931 8.64041 5.58548 8.66084C5.10708 8.68513 4.74956 9.07165 4.56497 9.34683C4.3354 9.68901 4.19321 10.1227 4.09785 10.5849C3.77067 12.1697 3.91725 15.3471 4.17968 16.9909C4.25319 17.4516 4.44158 17.9271 4.67985 18.1973C4.98486 18.5435 5.1996 18.6862 5.82516 18.7327Z" fill="#D1FADF"/>
<path fill-rule="evenodd" clip-rule="evenodd" d="M6.72803 12.4714C6.90998 12.3966 7.29024 11.9089 7.89196 11.5636C8.35527 11.2979 9.00009 11.1927 9.61823 11.2837C10.9127 11.4742 11.3292 12.3393 12.9252 11.7526C14.1075 11.318 14.9005 10.9041 16.1016 11.6473C17.116 12.2751 17.5329 13.0971 17.5436 14.3523C17.8541 13.924 17.6864 13.0158 17.4619 12.5335C17.2176 12.0088 16.8681 11.5777 16.4723 11.3037C15.1941 10.419 14.468 10.7253 13.0644 11.2422C11.3158 11.8861 10.9497 10.847 9.50941 10.7624C8.34348 10.694 7.09251 11.3221 6.72803 12.4714Z" fill="#AAACB2"/>
<path d="M10.518 14.452C10.518 15.2698 10.0445 15.9327 9.46041 15.9327C8.87633 15.9327 8.40283 15.2698 8.40283 14.452C8.40283 13.6343 8.87633 12.9714 9.46041 12.9714C10.0445 12.9714 10.518 13.6343 10.518 14.452Z" fill="#475467"/>
<path d="M15.8059 14.452C15.8059 15.2698 15.3324 15.9327 14.7483 15.9327C14.1642 15.9327 13.6907 15.2698 13.6907 14.452C13.6907 13.6343 14.1642 12.9714 14.7483 12.9714C15.3324 12.9714 15.8059 13.6343 15.8059 14.452Z" fill="#475467"/>
<path d="M21.0469 11.8611C21.4962 11.9501 21.7994 12.3121 21.9531 12.6951C22.1382 13.1563 22.1311 13.6998 22.0312 14.2068H22.0322C21.92 14.8004 21.6466 15.2653 21.0537 15.365L21.0527 13.0974L21.0518 13.0857L21.0469 11.8611Z" fill="#D0D5DD"/>
<path fill-rule="evenodd" clip-rule="evenodd" d="M22.0316 14.2072L21.1452 14.2623L21.0522 13.085L21.0533 15.3653C21.6464 15.2658 21.9194 14.8009 22.0316 14.2072Z" fill="#98A2B3"/>
<path d="M3.02734 12.3806L3.03613 12.3914L3.03223 12.9138L3.05469 15.3601C2.48279 15.3253 2.12427 14.7619 2.06836 14.1677C1.96761 13.7888 1.86568 13.3411 2.04199 12.9675L2.125 12.8435C2.23655 12.3827 2.55956 11.9068 3.03516 11.8513L3.02734 12.3806ZM2.31445 12.9246V12.9236V12.9246Z" fill="#D0D5DD"/>
<path fill-rule="evenodd" clip-rule="evenodd" d="M2.06885 14.1681C2.12477 14.7625 2.4832 15.3257 3.05534 15.3603L3.02725 12.3809L3.03536 12.3908L3.02177 14.2269L2.06885 14.1681Z" fill="#98A2B3"/>
<path fill-rule="evenodd" clip-rule="evenodd" d="M2.12488 12.844L2.09814 13.1208C2.47706 12.8582 2.39858 12.589 3.03592 12.3911L3.02781 12.3812L3.0356 11.8513C2.55966 11.9067 2.23635 12.3829 2.12488 12.844Z" fill="#D1FADF"/>
</svg>
