<svg width="50" height="43" viewBox="0 0 50 43" fill="none" xmlns="http://www.w3.org/2000/svg">
<path fill-rule="evenodd" clip-rule="evenodd" d="M3.42489 23.0664C3.66519 22.0724 4.36219 21.0457 5.38825 20.9263L5.37144 22.0687L5.432 28.4918C4.19857 28.4172 3.42601 27.203 3.3053 25.9216C3.08806 25.1042 2.86554 24.1392 3.24599 23.3331L3.42489 23.0664ZM46.3414 26.0058C46.0995 27.2857 45.5108 28.2879 44.2321 28.5025L44.2299 23.5864L44.2179 20.9475C45.1872 21.1393 45.8414 21.9199 46.1728 22.7458C46.5721 23.7406 46.557 24.9124 46.3414 26.0058ZM10.8863 14.0488C12.1387 13.3267 22.4778 12.9465 24.6512 12.9397C29.4096 12.9247 33.916 13.2753 38.4886 13.9244C42.1558 14.5822 42.2817 19.1925 42.3629 23.035C42.4074 25.1417 42.409 27.3573 42.2615 29.4476C42.1172 31.4929 41.8111 33.1828 40.7772 34.4924C39.1268 36.5836 33.1994 36.475 29.873 36.6605C27.8041 36.7758 18.767 37.1484 17.4628 36.4041C15.8467 36.2937 12.7622 36.2288 11.403 35.762C10.0545 35.6618 9.59151 35.3543 8.93395 34.6079C8.42044 34.0255 8.01416 33.0002 7.85567 32.007C7.29007 28.4631 6.97393 21.6132 7.67927 18.1967C7.88484 17.2003 8.19139 16.2654 8.68629 15.5277C9.08424 14.9345 9.855 14.1012 10.8863 14.0488Z" fill="#054F31"/>
<path fill-rule="evenodd" clip-rule="evenodd" d="M5.81314 31.4333C5.91468 31.9425 6.03789 32.3712 6.11386 32.9347C6.18498 33.4612 6.24485 33.9574 6.4182 34.4401C6.74739 35.3572 7.40424 36.0002 7.99179 36.4837C9.34982 37.6003 11.4358 37.7063 13.5164 37.9632C16.4686 38.7765 32.1852 38.4117 32.1852 38.4117C37.1161 37.9632 41.5838 37.7178 43.3097 34.3999C43.6054 33.8313 43.8525 33.1048 43.981 32.3813C44.2631 30.7908 43.8203 30.9242 44.8602 30.5241C46.4103 29.9275 46.9844 29.794 47.8795 28.0605C48.8759 26.1311 48.9227 23.4157 47.8986 21.3711C47.2472 20.0704 46.4219 19.3282 44.9962 18.8466C44.0039 18.5114 43.8586 18.56 43.6726 17.4258C43.4754 16.2222 43.3077 15.3577 42.6492 14.369C42.5577 14.2315 42.46 14.0872 42.3535 13.9638C42.2479 13.8417 42.1205 13.7305 42.0661 13.581C41.8358 13.47 41.6101 13.2243 41.3412 13.052C38.8917 11.4834 33.0917 11.1671 30.1762 11.0312C30.0527 11.0255 25.606 10.9548 25.5345 10.8812C25.4989 10.8204 25.1344 8.86801 25.0375 8.52645C24.4795 6.56185 23.3582 4.20444 20.9178 4.0147C19.0787 3.85066 17.5892 5.09604 16.7174 5.93527C16.1165 5.9411 15.8849 5.64719 15.1085 5.90666C13.6146 6.40573 13.0876 8.17087 14.2384 9.35166C14.8743 10.0042 15.9334 10.2351 16.8361 9.61696C17.6484 9.06094 17.854 8.22657 17.6012 6.93119C18.2886 5.94791 20.6328 4.94964 22.1146 6.20127C23.2876 7.1919 23.767 8.87343 23.8181 10.9401C22.9872 11.0424 21.8353 11.0073 20.9667 11.0483C18.1039 11.1835 15.4134 11.4045 12.5692 11.7098C8.55587 12.1406 6.72808 13.3812 5.99385 17.1444C5.75842 18.3514 5.88884 18.5116 4.76292 18.8947C4.3783 19.0255 3.95327 19.1101 3.61713 19.2654C3.27502 19.4233 3.01375 19.6632 2.77429 19.9389C1.91755 20.9248 1.13013 22.3806 1.01387 24.1981C0.860939 26.59 1.98186 29.4391 3.93035 30.3343C4.3008 30.5048 4.66236 30.5885 5.08184 30.6984C5.87676 30.9065 5.4959 30.9813 5.81314 31.4333ZM5.38825 20.9263C4.36219 21.0457 3.66519 22.0724 3.42489 23.0664L3.24599 23.3331C2.86554 24.1392 3.08806 25.1042 3.3053 25.9216C3.42601 27.203 4.19857 28.4172 5.432 28.4918L5.37144 22.0687L5.38825 20.9263ZM44.2321 28.5025C45.5108 28.2879 46.0995 27.2857 46.3414 26.0058C46.557 24.9124 46.5721 23.7406 46.1728 22.7458C45.8414 21.9199 45.1872 21.1393 44.2179 20.9475L44.2299 23.5864L44.2321 28.5025ZM24.6512 12.9397C22.4778 12.9465 12.1387 13.3267 10.8863 14.0488C9.855 14.1012 9.08424 14.9345 8.68629 15.5277C8.19139 16.2654 7.88484 17.2003 7.67927 18.1967C6.97393 21.6132 7.29007 28.4631 7.85567 32.007C8.01416 33.0002 8.42044 34.0255 8.93395 34.6079C9.59151 35.3543 10.0545 35.6618 11.403 35.762C12.7622 36.2288 15.8467 36.2937 17.4628 36.4041C18.767 37.1484 27.8041 36.7758 29.873 36.6605C33.1994 36.475 39.1268 36.5836 40.7772 34.4924C41.8111 33.1828 42.1172 31.4929 42.2615 29.4476C42.409 27.3573 42.4074 25.1417 42.3629 23.035C42.2817 19.1925 42.1558 14.5822 38.4886 13.9244C33.916 13.2753 29.4096 12.9247 24.6512 12.9397Z" fill="#054F31"/>
<path fill-rule="evenodd" clip-rule="evenodd" d="M13.3474 22.2631C13.118 22.8745 12.8387 22.9879 12.6695 24.1256C12.5521 24.9154 12.6411 25.7569 12.8485 26.493C13.5943 29.1398 15.7976 30.9631 18.5563 31.1727C20.4509 31.3167 21.1732 30.6516 22.6408 30.1228C26.6046 28.6947 27.7249 31.4451 31.1274 31.1685C33.6016 30.9678 36.8064 28.7582 36.6641 26.3179C36.6409 23.6118 35.7422 21.8397 33.5552 20.4863C30.966 18.8841 29.2562 19.7765 26.7074 20.7134C23.2666 21.9781 22.3689 20.1132 19.5782 19.7025C18.2456 19.5063 16.8555 19.733 15.8567 20.306C14.5595 21.0504 13.7397 22.102 13.3474 22.2631Z" fill="white"/>
<path fill-rule="evenodd" clip-rule="evenodd" d="M10.7843 25.3084C11.0191 30.4046 16.0283 33.9601 20.5862 32.8524C22.0713 32.4915 23.6018 31.491 25.237 31.6159C26.9113 31.7437 27.9295 32.7982 29.8034 32.9932C31.6189 33.1823 33.3758 32.8159 34.719 32.05C35.9634 31.3403 36.9686 30.355 37.6699 29.1083C40.1521 24.6959 38.5689 19.2639 33.9924 17.3692C29.0756 15.3335 27.2266 18.385 24.3286 18.0999C22.6155 17.9315 21.6708 16.8955 19.7628 16.7239C14.8422 16.2812 10.5474 20.1703 10.7843 25.3084ZM36.6658 26.3189C36.808 28.7591 33.6032 30.9689 31.1291 31.1696C27.7266 31.446 26.6064 28.6957 22.6426 30.1238C21.175 30.6526 20.4525 31.3178 18.5581 31.1738C15.7995 30.964 13.596 29.1407 12.8503 26.4941C12.6429 25.7579 12.5538 24.9163 12.6712 24.1267C12.8404 22.989 13.1197 22.8756 13.3492 22.2642C14.1348 19.7865 16.8318 18.4323 19.3452 18.5801C22.4501 18.7625 23.2394 21.0025 27.0092 19.6144C30.0351 18.5003 31.6005 17.8396 34.356 19.7469C35.2094 20.3376 35.9628 21.267 36.4894 22.3982C36.9735 23.4377 37.3353 25.3957 36.6658 26.3189Z" fill="#054F31"/>
<path d="M24.6523 12.9395C29.4108 12.9245 33.9176 13.2757 38.4902 13.9248C38.6275 14.2385 38.8388 14.5474 38.998 14.9297C40.4957 18.5223 40.1625 25.7013 39.7393 29.4941C39.4945 31.6858 39.2802 32.459 37.7744 33.3545C37.6917 33.4037 37.6069 33.4505 37.5215 33.498C37.6074 33.4503 37.6932 33.4039 37.7764 33.3545C39.2822 32.459 39.4955 31.6849 39.7402 29.4932C40.1635 25.7003 40.4976 18.5213 39 14.9287C38.8407 14.5463 38.6284 14.2377 38.4912 13.9238C42.1586 14.5818 42.285 19.1917 42.3662 23.0342C42.4108 25.141 42.4123 27.357 42.2646 29.4473C42.1202 31.4922 41.8139 33.1824 40.7803 34.4922C39.1295 36.5829 33.2022 36.4746 29.876 36.6602C27.8076 36.7754 18.7769 37.1463 17.4678 36.4033C17.4666 36.4034 17.4651 36.4043 17.4639 36.4043C15.8477 36.2939 12.7633 36.2285 11.4043 35.7617V35.7607C10.057 35.6605 9.5938 35.3534 8.93652 34.6074C8.42298 34.0249 8.01691 32.9998 7.8584 32.0068C7.29266 28.4631 6.97729 21.613 7.68262 18.1963C7.88819 17.2 8.19455 16.265 8.68945 15.5273C9.0874 14.9341 9.85832 14.1002 10.8896 14.0479V14.0469C12.152 13.3256 22.4794 12.9464 24.6523 12.9395ZM23.2129 36.3047C22.9719 36.317 22.7313 36.3269 22.4912 36.335H22.4922C22.7325 36.3269 22.9737 36.317 23.2148 36.3047C23.2973 36.3005 23.3802 36.2945 23.4639 36.29C23.3796 36.2945 23.296 36.3004 23.2129 36.3047ZM26.9902 36.041C26.5879 36.0783 26.1898 36.1116 25.7979 36.1416C26.1898 36.1116 26.5879 36.0783 26.9902 36.041ZM32.9756 35.1299C32.1767 35.316 31.3505 35.4714 30.5156 35.6045C31.3505 35.4715 32.1767 35.316 32.9756 35.1299ZM35.3281 34.459C35.1618 34.5168 34.9932 34.5728 34.8223 34.627C34.9932 34.5728 35.1618 34.5168 35.3281 34.459ZM36.0439 34.1924C35.9092 34.2462 35.7724 34.2986 35.6338 34.3496C35.7724 34.2986 35.9091 34.2461 36.0439 34.1924ZM37.3096 33.6133C37.0324 33.7595 36.742 33.8968 36.4404 34.0273C36.742 33.8969 37.0324 33.7594 37.3096 33.6133ZM33.9922 17.3682C29.0759 15.3328 27.2269 18.3834 24.3291 18.0986C22.616 17.9301 21.6708 16.8943 19.7627 16.7227C14.8422 16.2803 10.5474 20.1695 10.7842 25.3076C11.0192 30.4035 16.0281 33.9589 20.5859 32.8516C22.0711 32.4908 23.6022 31.4905 25.2373 31.6152C26.9115 31.7431 27.9299 32.7972 29.8037 32.9922C31.6191 33.1812 33.3756 32.8146 34.7188 32.0488C35.9631 31.3391 36.9686 30.354 37.6699 29.1074C40.1521 24.695 38.5685 19.263 33.9922 17.3682Z" fill="#039855"/>
<path fill-rule="evenodd" clip-rule="evenodd" d="M17.4629 36.4038C18.767 37.1479 27.8041 36.7755 29.8731 36.6602C33.1994 36.4746 39.1269 36.5831 40.7773 34.4921C41.811 33.1823 42.1171 31.4924 42.2616 29.4473C42.4092 27.357 42.4076 25.1415 42.363 23.0347C42.2817 19.1921 42.156 14.582 38.4886 13.9241C38.6259 14.238 38.8374 14.5469 38.9967 14.9294C40.4943 18.5221 40.1608 25.701 39.7376 29.4938C39.4929 31.6855 39.2791 32.459 37.7733 33.3545C34.1198 35.5272 27.7369 36.0734 23.2114 36.3048C21.2826 36.4033 19.3847 36.3509 17.4629 36.4038Z" fill="#027A48"/>
<path fill-rule="evenodd" clip-rule="evenodd" d="M11.4024 35.7613C11.4181 35.4919 11.4962 35.607 11.2227 35.4678C11.121 35.416 11.0474 35.3946 10.9489 35.3332C9.63741 34.518 9.29516 32.578 9.12862 31.1471C8.88137 29.0238 8.70705 26.8965 8.71067 24.7234C8.71358 23.0215 8.93207 16.9663 9.83576 15.5669C10.4218 14.6594 11.1182 14.5411 11.7494 14.1176C11.3939 14.0256 11.2605 14.0041 10.8857 14.0481C9.85437 14.1005 9.08361 14.9337 8.68566 15.527C8.19076 16.2647 7.88421 17.1996 7.67864 18.196C6.9733 21.6126 7.2893 28.4625 7.85504 32.0062C8.01353 32.9994 8.41967 34.0246 8.93332 34.6071C9.59088 35.3535 10.0538 35.6611 11.4024 35.7613Z" fill="#D1FADF"/>
<path fill-rule="evenodd" clip-rule="evenodd" d="M13.3481 22.2628C13.7404 22.1017 14.5602 21.0502 15.8574 20.3059C16.8562 19.7329 18.2463 19.5062 19.5789 19.7023C22.3696 20.1131 23.2674 21.9781 26.7081 20.7133C29.2569 19.7764 30.9667 18.8839 33.5559 20.4861C35.7429 21.8396 36.6416 23.6117 36.6648 26.3177C37.3341 25.3945 36.9724 23.4365 36.4885 22.3967C35.9619 21.2655 35.2084 20.3361 34.3551 19.7454C31.5995 17.8382 30.0342 18.4986 27.0083 19.6129C23.2385 21.001 22.4493 18.761 19.3443 18.5786C16.8308 18.431 14.1339 19.7851 13.3481 22.2628Z" fill="#AAACB2"/>
<path d="M21.5194 25.5328C21.5194 27.2956 20.4986 28.7247 19.2394 28.7247C17.9802 28.7247 16.9595 27.2956 16.9595 25.5328C16.9595 23.7699 17.9802 22.3408 19.2394 22.3408C20.4986 22.3408 21.5194 23.7699 21.5194 25.5328Z" fill="#054F31"/>
<path d="M32.9192 25.5328C32.9192 27.2956 31.8984 28.7247 30.6392 28.7247C29.3801 28.7247 28.3593 27.2956 28.3593 25.5328C28.3593 23.7699 29.3801 22.3408 30.6392 22.3408C31.8984 22.3408 32.9192 23.7699 32.9192 25.5328Z" fill="#054F31"/>
<path d="M44.2173 20.9473C45.1863 21.1391 45.8409 21.9193 46.1724 22.7451C46.5714 23.7398 46.5558 24.9116 46.3403 26.0049C46.0984 27.2847 45.5104 28.2872 44.2319 28.502L44.229 23.5859L44.2173 20.9473Z" fill="#039855"/>
<path fill-rule="evenodd" clip-rule="evenodd" d="M46.3409 26.0051L44.4299 26.1238L44.2295 23.5857L44.2317 28.5018C45.5104 28.2872 46.0989 27.285 46.3409 26.0051Z" fill="#027A48"/>
<path d="M5.37158 22.0679L5.38916 22.0894L5.38623 22.0903H5.38916L5.38037 23.2378L5.43018 28.4907C4.27396 28.4206 3.52314 27.3491 3.33447 26.1597L3.3042 25.9204C3.08697 25.1034 2.86556 24.1391 3.24561 23.3335L3.42432 23.0659C3.66461 22.0719 4.36213 21.0456 5.38818 20.9263L5.37158 22.0679ZM4.13623 22.8638C3.92168 23.1214 3.75525 23.3932 3.3667 23.6626C3.75531 23.3931 3.92154 23.1215 4.13623 22.8638ZM4.36084 22.6255V22.6265V22.6255ZM5.36963 22.0952C5.03585 22.2003 4.79454 22.315 4.60791 22.436L4.76221 22.3452C4.92384 22.2578 5.12115 22.1744 5.36963 22.0962V22.0952Z" fill="#039855"/>
<path fill-rule="evenodd" clip-rule="evenodd" d="M3.30469 25.9208C3.42525 27.2022 4.19795 28.4164 5.43139 28.491L5.37083 22.0679L5.38833 22.0893L5.35902 26.0476L3.30469 25.9208Z" fill="#027A48"/>
<path fill-rule="evenodd" clip-rule="evenodd" d="M3.42532 23.0661L3.36768 23.6629C4.18455 23.0966 4.01537 22.5163 5.38937 22.0897L5.37186 22.0683L5.38867 20.926C4.36262 21.0453 3.66561 22.0721 3.42532 23.0661Z" fill="#D1FADF"/>
</svg>
