<svg width="39" height="46" viewBox="0 0 39 46" fill="none" xmlns="http://www.w3.org/2000/svg">
<g clip-path="url(#clip0_548_8453)">
<path d="M23.5754 9.72126C23.4191 9.11351 23.1353 8.54596 22.7429 8.05627C22.3539 7.56315 21.8659 7.15694 21.3104 6.86377C20.7563 6.57291 20.1492 6.39689 19.5254 6.34627C18.8999 6.29927 18.2714 6.38357 17.6804 6.59377C17.0861 6.801 16.5419 7.1306 16.0829 7.56127C15.6289 7.98466 15.2642 8.49468 15.0104 9.06127C14.7624 9.63656 14.6372 10.2573 14.6429 10.8838C14.6255 11.6073 14.7804 12.3247 15.0946 12.9767C15.4089 13.6286 15.8736 14.1966 16.4504 14.6338L16.7129 14.8813C16.9379 15.1138 16.9379 15.1138 16.9304 15.6313V15.8713C16.9214 16.0372 16.9469 16.2032 17.0054 16.3588C17.0579 16.5253 17.1509 16.6775 17.2754 16.8013C17.3324 16.8598 17.3949 16.9123 17.4629 16.9588V17.7088C17.4506 17.8448 17.4653 17.9819 17.5062 18.1122C17.5471 18.2425 17.6133 18.3635 17.7012 18.468C17.789 18.5726 17.8967 18.6588 18.018 18.7215C18.1393 18.7843 18.2718 18.8224 18.4079 18.8338H19.9079C20.1834 18.8108 20.4385 18.6795 20.6171 18.4685C20.7957 18.2575 20.8832 17.9842 20.8604 17.7088V16.9588C20.9281 16.9128 20.991 16.86 21.0479 16.8013C21.1657 16.6768 21.2557 16.5283 21.3104 16.3663C21.3679 16.2078 21.3934 16.0396 21.3854 15.8713V15.5938C21.3854 15.1813 21.3854 15.1813 21.6179 14.9188L21.9029 14.6563C22.8645 13.9084 23.4924 12.8116 23.6504 11.6038C23.7608 10.9782 23.7353 10.3361 23.5754 9.72126ZM19.7729 17.6938H18.5879V17.2213H19.7729V17.6938ZM19.1804 9.77377C18.9358 9.77377 18.7011 9.87096 18.5281 10.044C18.3551 10.217 18.2579 10.4516 18.2579 10.6963C18.2579 10.8952 18.1789 11.0859 18.0382 11.2266C17.8976 11.3672 17.7068 11.4463 17.5079 11.4463C17.309 11.4463 17.1182 11.3672 16.9776 11.2266C16.8369 11.0859 16.7579 10.8952 16.7579 10.6963C16.7559 10.3776 16.8172 10.0617 16.9383 9.76686C17.0593 9.47205 17.2377 9.20421 17.463 8.97886C17.6884 8.75351 17.9562 8.57515 18.251 8.45411C18.5458 8.33307 18.8617 8.27177 19.1804 8.27377C19.3793 8.27377 19.5701 8.35278 19.7107 8.49344C19.8514 8.63409 19.9304 8.82485 19.9304 9.02377C19.9304 9.22268 19.8514 9.41344 19.7107 9.55409C19.5701 9.69475 19.3793 9.77377 19.1804 9.77377Z" fill="#027A48"/>
<path d="M19.9269 2.18574C20.0546 2.30466 20.1263 2.46596 20.1263 2.63415V3.88554C20.1263 4.05373 20.0546 4.21502 19.9269 4.33395C19.7992 4.45288 19.6261 4.51969 19.4455 4.51969C19.265 4.51969 19.0918 4.45288 18.9641 4.33395C18.8365 4.21502 18.7647 4.05373 18.7647 3.88554V2.63415C18.7647 2.46596 18.8365 2.30466 18.9641 2.18574C19.0918 2.06681 19.265 2 19.4455 2C19.6261 2 19.7992 2.06681 19.9269 2.18574Z" fill="#12B76A"/>
<path d="M26.1 11.563H27.7611C27.9417 11.563 28.1148 11.4962 28.2425 11.3772C28.3702 11.2583 28.4419 11.097 28.4419 10.9288C28.4419 10.7606 28.3702 10.5993 28.2425 10.4804C28.1148 10.3615 27.9417 10.2947 27.7611 10.2947H26.1C25.9194 10.2947 25.7463 10.3615 25.6186 10.4804C25.4909 10.5993 25.4192 10.7606 25.4192 10.9288C25.4192 11.097 25.4909 11.2583 25.6186 11.3772C25.7463 11.4962 25.9194 11.563 26.1 11.563Z" fill="#12B76A"/>
<path d="M24.16 6.43352C24.2426 6.46547 24.3313 6.48172 24.4207 6.48132C24.5102 6.4822 24.599 6.46617 24.6817 6.4342C24.7644 6.40223 24.8393 6.35498 24.9018 6.29531L26.0818 5.19611C26.2021 5.0759 26.2676 4.9169 26.2644 4.75261C26.2613 4.58833 26.1899 4.43158 26.0651 4.31539C25.9404 4.1992 25.7721 4.13265 25.5958 4.12975C25.4194 4.12685 25.2487 4.18783 25.1197 4.29985L23.9396 5.39904C23.8121 5.51795 23.7405 5.67912 23.7405 5.84717C23.7405 6.01522 23.8121 6.1764 23.9396 6.29531C24.0025 6.35459 24.0774 6.40158 24.16 6.43352Z" fill="#12B76A"/>
<path d="M26.0274 16.8137C26.1575 16.929 26.3289 16.9953 26.5085 16.9998C26.689 16.9996 26.862 16.9327 26.9895 16.8137C27.0538 16.7554 27.1048 16.6858 27.1397 16.6088C27.1745 16.5318 27.1925 16.4491 27.1925 16.3656C27.1925 16.2821 27.1745 16.1994 27.1397 16.1224C27.1048 16.0455 27.0538 15.9758 26.9895 15.9175L25.8095 14.8183C25.7153 14.728 25.594 14.6663 25.4615 14.6413C25.3291 14.6162 25.1916 14.629 25.067 14.6779C24.9632 14.7178 24.8716 14.781 24.8003 14.8619C24.7291 14.9427 24.6804 15.0387 24.6587 15.1414C24.637 15.244 24.6428 15.35 24.6757 15.45C24.7086 15.55 24.7676 15.6409 24.8473 15.7145L26.0274 16.8137Z" fill="#12B76A"/>
<path d="M14.0001 6.29531C14.1277 6.41427 14.3007 6.48118 14.4812 6.48132C14.6158 6.48121 14.7473 6.44396 14.8591 6.37427C14.971 6.30458 15.0582 6.20559 15.1096 6.08978C15.1611 5.97397 15.1746 5.84655 15.1484 5.72361C15.1221 5.60067 15.0574 5.48773 14.9623 5.39904L13.7914 4.29985C13.6638 4.17988 13.4902 4.11203 13.3089 4.11124C13.1277 4.11044 12.9534 4.17677 12.8246 4.29562C12.6959 4.41447 12.623 4.57612 12.6222 4.74499C12.6213 4.91387 12.6925 5.07614 12.8201 5.19611L14.0001 6.29531Z" fill="#12B76A"/>
<path d="M12.1406 16.9548C12.2235 16.9868 12.3128 17.0022 12.4026 16.9998C12.584 16.9997 12.7589 16.9363 12.8927 16.8222L14.0637 15.7145C14.1839 15.5943 14.2494 15.4353 14.2463 15.271C14.2432 15.1068 14.1717 14.95 14.047 14.8338C13.9223 14.7176 13.754 14.6511 13.5776 14.6482C13.4012 14.6453 13.2306 14.7063 13.1015 14.8183L11.9215 15.9175C11.794 16.0364 11.7224 16.1976 11.7224 16.3656C11.7224 16.5337 11.794 16.6948 11.9215 16.8137C11.983 16.8746 12.0577 16.9227 12.1406 16.9548Z" fill="#12B76A"/>
<path d="M11.1227 11.563H12.7838C12.9644 11.563 13.1375 11.4962 13.2652 11.3772C13.3929 11.2583 13.4646 11.097 13.4646 10.9288C13.4646 10.7606 13.3929 10.5993 13.2652 10.4804C13.1375 10.3615 12.9644 10.2947 12.7838 10.2947H11.1227C10.9421 10.2947 10.769 10.3615 10.6413 10.4804C10.5136 10.5993 10.4419 10.7606 10.4419 10.9288C10.4419 11.097 10.5136 11.2583 10.6413 11.3772C10.769 11.4962 10.9421 11.563 11.1227 11.563Z" fill="#12B76A"/>
</g>
<path fill-rule="evenodd" clip-rule="evenodd" d="M2.85011 31.2518C3.03345 30.4934 3.56524 29.7101 4.34809 29.619L4.33526 30.4906L4.38147 35.3912C3.4404 35.3343 2.85096 34.4079 2.75887 33.4302C2.59312 32.8066 2.42335 32.0704 2.71362 31.4553L2.85011 31.2518ZM35.594 33.4945C35.4094 34.471 34.9602 35.2357 33.9846 35.3994L33.9829 31.6486L33.9738 29.6351C34.7133 29.7815 35.2125 30.3771 35.4653 31.0072C35.77 31.7662 35.7584 32.6602 35.594 33.4945ZM8.54294 24.3717C9.49842 23.8208 17.3869 23.5307 19.0451 23.5255C22.6756 23.5141 26.1138 23.7815 29.6025 24.2768C32.4005 24.7787 32.4965 28.2961 32.5585 31.2279C32.5924 32.8352 32.5937 34.5256 32.4811 36.1204C32.371 37.6809 32.1375 38.9703 31.3487 39.9695C30.0895 41.565 25.567 41.4821 23.0291 41.6237C21.4506 41.7116 14.5556 41.9959 13.5606 41.4281C12.3276 41.3438 9.97415 41.2943 8.93717 40.9381C7.90825 40.8617 7.55503 40.6271 7.05334 40.0576C6.66154 39.6132 6.35156 38.831 6.23065 38.0732C5.79911 35.3693 5.55791 30.1431 6.09605 27.5364C6.2529 26.7762 6.48679 26.0629 6.86438 25.5001C7.168 25.0474 7.75607 24.4117 8.54294 24.3717Z" fill="#054F31"/>
<path fill-rule="evenodd" clip-rule="evenodd" d="M4.34809 29.619C3.56524 29.7101 3.03345 30.4934 2.85011 31.2518L2.71362 31.4553C2.42335 32.0704 2.59312 32.8066 2.75887 33.4302C2.85096 34.4079 3.4404 35.3343 4.38147 35.3912L4.33526 30.4906L4.34809 29.619ZM33.9846 35.3994C34.9602 35.2357 35.4094 34.471 35.594 33.4945C35.7584 32.6602 35.77 31.7662 35.4653 31.0072C35.2125 30.3771 34.7133 29.7815 33.9738 29.6351L33.9829 31.6486L33.9846 35.3994ZM19.0451 23.5255C17.3869 23.5307 9.49842 23.8208 8.54294 24.3717C7.75607 24.4117 7.168 25.0474 6.86438 25.5001C6.48679 26.0629 6.2529 26.7762 6.09605 27.5364C5.55791 30.1431 5.79911 35.3693 6.23065 38.0732C6.35156 38.831 6.66154 39.6132 7.05334 40.0576C7.55503 40.6271 7.90825 40.8617 8.93717 40.9381C9.97415 41.2943 12.3276 41.3438 13.5606 41.4281C14.5556 41.9959 21.4506 41.7116 23.0291 41.6237C25.567 41.4821 30.0895 41.565 31.3487 39.9695C32.1375 38.9703 32.371 37.6809 32.4811 36.1204C32.5937 34.5256 32.5924 32.8352 32.5585 31.2279C32.4965 28.2961 32.4005 24.7787 29.6025 24.2768C26.1138 23.7815 22.6756 23.5141 19.0451 23.5255Z" fill="#054F31"/>
<path fill-rule="evenodd" clip-rule="evenodd" d="M4.34809 29.619C3.56524 29.7101 3.03345 30.4934 2.85011 31.2518L2.71362 31.4553C2.42335 32.0704 2.59312 32.8066 2.75887 33.4302C2.85096 34.4079 3.4404 35.3343 4.38147 35.3912L4.33526 30.4906L4.34809 29.619ZM33.9846 35.3994C34.9602 35.2357 35.4094 34.471 35.594 33.4945C35.7584 32.6602 35.77 31.7662 35.4653 31.0072C35.2125 30.3771 34.7133 29.7815 33.9738 29.6351L33.9829 31.6486L33.9846 35.3994ZM19.0451 23.5255C17.3869 23.5307 9.49842 23.8208 8.54294 24.3717C7.75607 24.4117 7.168 25.0474 6.86438 25.5001C6.48679 26.0629 6.2529 26.7762 6.09605 27.5364C5.55791 30.1431 5.79911 35.3693 6.23065 38.0732C6.35156 38.831 6.66154 39.6132 7.05334 40.0576C7.55503 40.6271 7.90825 40.8617 8.93717 40.9381C9.97415 41.2943 12.3276 41.3438 13.5606 41.4281C14.5556 41.9959 21.4506 41.7116 23.0291 41.6237C25.567 41.4821 30.0895 41.565 31.3487 39.9695C32.1375 38.9703 32.371 37.6809 32.4811 36.1204C32.5937 34.5256 32.5924 32.8352 32.5585 31.2279C32.4965 28.2961 32.4005 24.7787 29.6025 24.2768C26.1138 23.7815 22.6756 23.5141 19.0451 23.5255Z" fill="#054F31"/>
<path fill-rule="evenodd" clip-rule="evenodd" d="M4.67227 37.6355C4.74973 38.024 4.84374 38.351 4.9017 38.781C4.95596 39.1827 5.00164 39.5613 5.1339 39.9295C5.38506 40.6293 5.88622 41.1199 6.3345 41.4888C7.37063 42.3407 8.96218 42.4216 10.5496 42.6175C12.802 43.2381 24.7932 42.9597 24.7932 42.9597C28.5554 42.6175 31.9641 42.4304 33.2808 39.8989C33.5065 39.4651 33.695 38.9108 33.793 38.3588C34.0083 37.1452 33.6704 37.2471 34.4638 36.9418C35.6465 36.4866 36.0845 36.3848 36.7674 35.0622C37.5277 33.5901 37.5634 31.5183 36.7821 29.9584C36.285 28.966 35.6553 28.3997 34.5676 28.0322C33.8105 27.7765 33.6997 27.8136 33.5578 26.9482C33.4073 26.0299 33.2794 25.3703 32.7769 24.616C32.7071 24.5111 32.6326 24.401 32.5513 24.3069C32.4708 24.2137 32.3736 24.1288 32.332 24.0148C32.1563 23.9301 31.9841 23.7427 31.7789 23.6111C29.9101 22.4143 25.4849 22.173 23.2605 22.0694L18.4094 21.9999C18.4094 21.9999 16.8966 22.0512 16.2339 22.0824C14.0497 22.1855 11.9969 22.3542 9.82694 22.5871C6.76487 22.9158 5.37033 23.8623 4.81014 26.7335C4.63051 27.6544 4.73002 27.7766 3.87098 28.0689C3.57753 28.1687 3.25325 28.2333 2.99678 28.3518C2.73576 28.4723 2.53642 28.6553 2.35372 28.8656C1.70006 29.6179 1.09928 30.7286 1.01058 32.1153C0.893901 33.9402 1.74913 36.114 3.23576 36.797C3.5184 36.927 3.79426 36.9909 4.1143 37.0748C4.7208 37.2335 4.43022 37.2906 4.67227 37.6355ZM4.34809 29.619C3.56524 29.7101 3.03345 30.4934 2.85011 31.2518L2.71362 31.4553C2.42335 32.0704 2.59312 32.8066 2.75887 33.4302C2.85096 34.4079 3.4404 35.3343 4.38147 35.3912L4.33526 30.4906L4.34809 29.619ZM33.9846 35.3994C34.9602 35.2357 35.4094 34.471 35.594 33.4945C35.7584 32.6602 35.77 31.7662 35.4653 31.0072C35.2125 30.3771 34.7133 29.7815 33.9738 29.6351L33.9829 31.6486L33.9846 35.3994ZM19.0451 23.5255C17.3869 23.5307 9.49842 23.8208 8.54294 24.3717C7.75607 24.4117 7.168 25.0474 6.86438 25.5001C6.48679 26.0629 6.2529 26.7762 6.09605 27.5364C5.55791 30.1431 5.79911 35.3693 6.23065 38.0732C6.35156 38.831 6.66154 39.6132 7.05334 40.0576C7.55503 40.6271 7.90825 40.8617 8.93717 40.9381C9.97415 41.2943 12.3276 41.3438 13.5606 41.4281C14.5556 41.9959 21.4506 41.7116 23.0291 41.6237C25.567 41.4821 30.0895 41.565 31.3487 39.9695C32.1375 38.9703 32.371 37.6809 32.4811 36.1204C32.5937 34.5256 32.5924 32.8352 32.5585 31.2279C32.4965 28.2961 32.4005 24.7787 29.6025 24.2768C26.1138 23.7815 22.6756 23.5141 19.0451 23.5255Z" fill="#054F31"/>
<path fill-rule="evenodd" clip-rule="evenodd" d="M10.4204 30.6388C10.2454 31.1053 10.0323 31.1918 9.90318 32.0599C9.81363 32.6625 9.88156 33.3045 10.0398 33.8661C10.6088 35.8855 12.2899 37.2767 14.3947 37.4366C15.8402 37.5465 16.3912 37.039 17.511 36.6355C20.5352 35.546 21.3899 37.6444 23.9859 37.4334C25.8737 37.2803 28.3189 35.5944 28.2102 33.7325C28.1925 31.6679 27.5069 30.3158 25.8383 29.2832C23.8628 28.0608 22.5583 28.7417 20.6137 29.4565C17.9884 30.4214 17.3035 28.9985 15.1743 28.6852C14.1576 28.5355 13.097 28.7085 12.3349 29.1456C11.3452 29.7136 10.7197 30.5159 10.4204 30.6388Z" fill="white"/>
<path fill-rule="evenodd" clip-rule="evenodd" d="M8.46514 32.9624C8.64435 36.8506 12.4662 39.5634 15.9437 38.7182C17.0768 38.4429 18.2445 37.6795 19.4921 37.7748C20.7695 37.8723 21.5464 38.6769 22.9761 38.8257C24.3612 38.9699 25.7017 38.6903 26.7265 38.106C27.676 37.5646 28.4429 36.8128 28.978 35.8616C30.8718 32.4951 29.6639 28.3507 26.1722 26.9051C22.4208 25.3519 21.0101 27.6801 18.799 27.4626C17.492 27.334 16.7712 26.5437 15.3154 26.4127C11.5612 26.0749 8.28445 29.0422 8.46514 32.9624ZM28.2119 33.7334C28.3204 35.5952 25.8752 37.2812 23.9876 37.4343C21.3916 37.6452 20.5369 35.5468 17.5126 36.6364C16.3929 37.0399 15.8417 37.5474 14.3963 37.4375C12.2916 37.2775 10.6104 35.8863 10.0414 33.867C9.88321 33.3054 9.81528 32.6633 9.90483 32.0608C10.0339 31.1927 10.247 31.1063 10.4221 30.6398C11.0215 28.7494 13.0792 27.7162 14.9969 27.829C17.3658 27.9681 17.968 29.6772 20.8442 28.6181C23.1529 27.768 24.3473 27.264 26.4496 28.7191C27.1007 29.1699 27.6755 29.879 28.0773 30.742C28.4466 31.5351 28.7227 33.029 28.2119 33.7334Z" fill="#054F31"/>
<path d="M19.0469 23.5251C22.6773 23.5137 26.1158 23.7819 29.6045 24.2771C29.7092 24.5164 29.8707 24.7521 29.9922 25.0437C31.1348 27.7848 30.8795 33.2623 30.5566 36.156C30.4077 37.4895 30.2734 38.134 29.6426 38.6873C30.2743 38.1338 30.4096 37.4893 30.5586 36.155C30.8815 33.2612 31.1358 27.7837 29.9932 25.0427C29.8716 24.751 29.7101 24.5155 29.6055 24.2761C32.4034 24.7782 32.4995 28.2956 32.5615 31.2273C32.5955 32.8347 32.597 34.5251 32.4844 36.1199C32.3742 37.6801 32.1401 38.9692 31.3516 39.9685C30.0924 41.5638 25.5702 41.4812 23.0322 41.6228C21.4538 41.7108 14.5588 41.9951 13.5635 41.4275C13.5693 41.4273 13.5752 41.4267 13.5811 41.4265C13.5749 41.4267 13.5687 41.4273 13.5625 41.4275C12.3295 41.3432 9.97545 41.2944 8.93848 40.9382V40.9363C7.91072 40.8598 7.55709 40.6265 7.05566 40.0574C6.66384 39.613 6.35437 38.8306 6.2334 38.073C5.80177 35.3693 5.56052 30.1427 6.09863 27.5359C6.25546 26.7758 6.48966 26.0626 6.86719 25.4998C7.17081 25.0471 7.75903 24.4108 8.5459 24.3708V24.3699C9.50971 23.8196 17.3896 23.5304 19.0469 23.5251ZM21.6484 41.0671C21.3257 41.1025 21.0048 41.1353 20.6875 41.1638C21.0048 41.1353 21.3257 41.1025 21.6484 41.0671ZM24.7217 40.6013C24.3757 40.6715 24.0251 40.7366 23.6719 40.7947C24.0251 40.7367 24.3757 40.6715 24.7217 40.6013ZM8.61035 40.6199C8.67209 40.6562 8.72179 40.674 8.78516 40.7048C8.72158 40.6738 8.67202 40.656 8.61035 40.6199ZM26.2461 40.2361C26.0747 40.284 25.9013 40.3309 25.7256 40.3748C25.9013 40.3309 26.0747 40.284 26.2461 40.2361ZM27.0791 39.9822C27.007 40.0066 26.9345 40.0309 26.8613 40.0544C26.9345 40.0309 27.007 40.0066 27.0791 39.9822ZM28.1191 39.5808C27.9969 39.6349 27.8722 39.6873 27.7451 39.738C27.8722 39.6873 27.9969 39.6349 28.1191 39.5808ZM29.0586 39.1013C29.0221 39.123 28.9844 39.1435 28.9473 39.1648C28.9848 39.1434 29.0228 39.1232 29.0596 39.1013C29.1036 39.0751 29.1453 39.0472 29.1865 39.0212C29.145 39.0474 29.103 39.0749 29.0586 39.1013ZM26.1729 26.9041C22.4217 25.3509 21.0107 27.6789 18.7998 27.4617C17.4929 27.3331 16.7719 26.543 15.3164 26.4119C11.5621 26.0742 8.28515 29.0414 8.46582 32.9617C8.64513 36.8498 12.4667 39.5627 15.9443 38.7175C17.0773 38.4423 18.2448 37.6792 19.4922 37.7742C20.7696 37.8717 21.5469 38.6761 22.9766 38.825C24.3616 38.9692 25.7018 38.6894 26.7266 38.1052C27.6759 37.5637 28.4434 36.8121 28.9785 35.8611C30.8723 32.4946 29.6644 28.3498 26.1729 26.9041ZM9.0918 24.4929C8.97021 24.5657 8.84805 24.6313 8.72363 24.696C8.84804 24.6313 8.97024 24.5658 9.0918 24.4929Z" fill="#039855"/>
<path fill-rule="evenodd" clip-rule="evenodd" d="M13.5605 41.4278C14.5556 41.9955 21.4506 41.7114 23.0291 41.6234C25.567 41.4818 30.0894 41.5646 31.3486 39.9692C32.1373 38.9699 32.3709 37.6806 32.4811 36.1202C32.5938 34.5253 32.5925 32.835 32.5585 31.2276C32.4965 28.2958 32.4006 24.7785 29.6025 24.2765C29.7072 24.516 29.8686 24.7517 29.9901 25.0435C31.1328 27.7846 30.8783 33.2619 30.5554 36.1557C30.3687 37.8279 30.2056 38.418 29.0567 39.1013C26.2692 40.759 21.3993 41.1757 17.9465 41.3522C16.4749 41.4273 15.0268 41.3874 13.5605 41.4278Z" fill="#027A48"/>
<path fill-rule="evenodd" clip-rule="evenodd" d="M8.93677 40.9376C8.94875 40.7321 9.00831 40.8198 8.79964 40.7136C8.72206 40.6741 8.6659 40.6578 8.59076 40.6109C7.59013 39.989 7.32901 38.5088 7.20194 37.4171C7.01331 35.7971 6.88031 34.1741 6.88306 32.5161C6.88529 31.2175 7.05199 26.5976 7.74147 25.5299C8.18858 24.8376 8.71994 24.7473 9.2015 24.4241C8.93031 24.354 8.82846 24.3376 8.54254 24.3712C7.75567 24.4111 7.16761 25.0469 6.86399 25.4995C6.48639 26.0623 6.2525 26.7756 6.09566 27.5358C5.55751 30.1426 5.79861 35.3688 6.23025 38.0726C6.35117 38.8303 6.66104 39.6125 7.05294 40.057C7.55463 40.6264 7.90785 40.8611 8.93677 40.9376Z" fill="#D1FADF"/>
<path fill-rule="evenodd" clip-rule="evenodd" d="M10.4214 30.6387C10.7207 30.5158 11.3461 29.7136 12.3358 29.1456C13.0979 28.7085 14.1585 28.5355 15.1753 28.6852C17.3044 28.9985 17.9895 30.4215 20.6146 29.4565C22.5593 28.7417 23.8637 28.0608 25.8392 29.2832C27.5078 30.3158 28.1935 31.6679 28.2112 33.7325C28.7219 33.0281 28.4459 31.5342 28.0767 30.7409C27.6749 29.8778 27.1 29.1687 26.449 28.718C24.3465 27.2629 23.1523 27.7668 20.8436 28.6169C17.9674 29.676 17.3653 27.967 14.9963 27.8278C13.0785 27.7152 11.0209 28.7483 10.4214 30.6387Z" fill="#AAACB2"/>
<path fill-rule="evenodd" clip-rule="evenodd" d="M14.2623 31.7744C13.3847 31.8742 11.4237 32.5618 12.0499 33.6359C12.6528 34.6704 13.3224 32.8577 15.1636 33.1883C15.7812 33.2993 16.1672 33.5873 16.5904 33.8572C17.2152 34.2554 17.6907 33.4498 17.4195 32.8497C17.2771 32.5348 16.5543 32.1477 16.1385 31.9945C15.5762 31.7877 14.9028 31.7016 14.2623 31.7744Z" fill="#054F31"/>
<path fill-rule="evenodd" clip-rule="evenodd" d="M23.1895 31.7744C22.3119 31.8742 20.3509 32.5618 20.9772 33.6359C21.5801 34.6704 22.2496 32.8577 24.0908 33.1883C24.7085 33.2993 25.0944 33.5873 25.5176 33.8572C26.1424 34.2554 26.618 33.4498 26.3468 32.8497C26.2043 32.5348 25.4816 32.1477 25.0657 31.9945C24.5034 31.7877 23.83 31.7016 23.1895 31.7744Z" fill="#054F31"/>
<path d="M33.9731 29.6349C34.7125 29.7812 35.2115 30.3769 35.4644 31.007C35.7687 31.7657 35.7576 32.6593 35.5933 33.4933C35.4087 34.4699 34.9595 35.2348 33.9839 35.3986L33.9829 31.6476L33.9731 29.6349Z" fill="#039855"/>
<path fill-rule="evenodd" clip-rule="evenodd" d="M35.5934 33.4938L34.1353 33.5845L33.9824 31.6479L33.9841 35.3988C34.9597 35.235 35.4088 34.4704 35.5934 33.4938Z" fill="#027A48"/>
<path d="M4.33496 30.49L4.34863 30.5066L4.3418 31.3689L4.37988 35.3904C3.4977 35.3369 2.92425 34.5196 2.78027 33.6121L2.75781 33.4294C2.59208 32.8061 2.42309 32.0705 2.71289 31.4558L2.84961 31.2517L2.88867 31.1091C3.10105 30.398 3.61389 29.7043 4.34766 29.6189L4.33496 30.49ZM3.16211 31.3826C3.09313 31.4631 3.01479 31.5445 2.91406 31.6257C3.01477 31.5445 3.09313 31.4632 3.16211 31.3826ZM4.00684 30.6335C3.90865 30.6777 3.82555 30.7242 3.75293 30.7712C3.82555 30.7242 3.90866 30.6777 4.00684 30.6335Z" fill="#039855"/>
<path fill-rule="evenodd" clip-rule="evenodd" d="M2.7583 33.4297C2.85029 34.4073 3.43983 35.3337 4.3809 35.3906L4.3347 30.49L4.34805 30.5063L4.32569 33.5264L2.7583 33.4297Z" fill="#027A48"/>
<path fill-rule="evenodd" clip-rule="evenodd" d="M2.85062 31.2515L2.80664 31.7069C3.42989 31.2749 3.30081 30.8321 4.34912 30.5066L4.33577 30.4903L4.34859 29.6188C3.56575 29.7098 3.03396 30.4932 2.85062 31.2515Z" fill="#D1FADF"/>
<defs>
<clipPath id="clip0_548_8453">
<rect width="18" height="18" fill="white" transform="translate(10.1768 2)"/>
</clipPath>
</defs>
</svg>
